<svg width="117" height="201" viewBox="0 0 117 201" fill="none" xmlns="http://www.w3.org/2000/svg">
<path d="M61.6455 195.57H67.4421L70.1999 173.212L61.6443 173.213L61.6455 195.57Z" fill="#FFB6B6"/>
<path d="M78.6217 200.952L60.4035 200.953L60.4032 193.914L72.4412 193.914C74.0803 193.914 75.6523 194.565 76.8113 195.723C77.9704 196.882 78.6216 198.454 78.6217 200.093L78.6217 200.952V200.952Z" fill="#2F2E41"/>
<path d="M3.68164 188.058L8.76129 190.851L21.9503 172.587L14.4533 168.466L3.68164 188.058Z" fill="#FFB6B6"/>
<path d="M15.9645 200.953L-1.08705e-05 192.176L3.39108 186.008L13.94 191.808C15.3763 192.597 16.4401 193.925 16.8974 195.499C17.3546 197.073 17.1679 198.764 16.3782 200.2L15.9645 200.953V200.953Z" fill="#2F2E41"/>
<path d="M61.3747 183.161C60.8581 183.16 60.3594 182.972 59.9715 182.631C59.5837 182.29 59.3331 181.819 59.2667 181.307L52.0173 125.446C51.9852 125.199 51.8759 124.968 51.705 124.787C51.534 124.606 51.3102 124.483 51.0654 124.437C50.8206 124.39 50.5674 124.422 50.3419 124.528C50.1164 124.635 49.9303 124.809 49.8099 125.027L19.5972 179.839C19.3479 180.287 18.9463 180.63 18.4654 180.807C17.9844 180.983 17.4561 180.981 16.9765 180.801L10.3911 178.292C10.1262 178.191 9.88414 178.038 9.67914 177.843C9.47413 177.647 9.31031 177.412 9.19729 177.152C9.08427 176.892 9.02433 176.613 9.02099 176.329C9.01765 176.046 9.07098 175.764 9.17785 175.502L30.1069 124.091C30.1599 123.96 30.1958 123.823 30.2138 123.684C33.0485 101.744 40.261 90.5871 42.404 87.6903C42.5605 87.4773 42.6635 87.2299 42.7043 86.9688C42.7451 86.7077 42.7225 86.4407 42.6384 86.1901L42.3438 85.3064C42.2261 84.9557 42.202 84.5803 42.2738 84.2173C42.3456 83.8544 42.5109 83.5165 42.7533 83.237C50.4751 74.4421 63.9339 79.2413 64.0689 79.2907L64.1363 79.3156L64.1786 79.3733C79.2699 100.069 73.6901 167.288 72.4183 180.553C72.3709 181.051 72.1486 181.517 71.7909 181.867C71.4332 182.218 70.9631 182.43 70.4637 182.467L61.5399 183.154C61.4845 183.159 61.4294 183.161 61.3747 183.161Z" fill="#2F2E41"/>
<path d="M57.283 27.9441C64.4077 27.9441 70.1834 22.1687 70.1834 15.0443C70.1834 7.91987 64.4077 2.14441 57.283 2.14441C50.1583 2.14441 44.3825 7.91987 44.3825 15.0443C44.3825 22.1687 50.1583 27.9441 57.283 27.9441Z" fill="#FFB8B8"/>
<path d="M37.3387 97.1287L75.2989 100.584C71.9894 89.0762 68.9572 77.6093 71.4288 66.1839C74.5673 55.9838 74.8591 50.3331 66.5796 45.5293L60.9895 33.0594L50.8722 32.6915L45.939 31.3394C41.9533 37.7474 40.323 45.3429 41.3278 52.822C43.4723 69.0857 42.8932 84.1776 37.3387 97.1287Z" fill="#1560BD"/>
<path d="M43.1006 39.5648L39.2823 22.0405C38.4857 17.8923 38.6856 13.6142 39.8656 9.55828C39.9941 9.14263 40.149 8.73561 40.3293 8.33967C41.3862 6.03635 43.048 4.06273 45.1377 2.62892C47.2274 1.19511 49.6668 0.354777 52.1963 0.197376C60.8739 -0.401997 62.1479 0.512769 62.4616 0.963972C67.3652 0.765959 71.1675 2.66033 72.9023 6.16596C73.0722 6.51392 73.1638 6.8949 73.1705 7.28207C73.1773 7.66924 73.099 8.05318 72.9413 8.40684C72.7836 8.76051 72.5503 9.0753 72.2578 9.32904C71.9653 9.58279 71.6207 9.76932 71.2483 9.87549C68.8249 10.5742 65.4185 11.3503 62.864 11.1221C57.7434 17.2638 59.8367 28.5164 65.0318 35.221L65.236 35.4845L60.0888 36.5393L54.1073 28.2099C53.9889 28.0451 53.8176 27.9259 53.6219 27.8723C53.4262 27.8186 53.218 27.8338 53.0321 27.9152C52.8463 27.9967 52.694 28.1394 52.6007 28.3197C52.5075 28.4999 52.479 28.7066 52.5199 28.9054L54.3359 37.7271L43.1006 39.5648Z" fill="#2F2E41"/>
<path d="M116.837 86.7524L22.9487 153.143L0.449768 121.329L94.338 54.9379L116.837 86.7524Z" fill="white"/>
<path d="M32.1426 132.45C35.8186 129.851 36.6912 124.764 34.0918 121.088C31.4923 117.412 26.405 116.54 22.7291 119.139C19.0531 121.739 18.1804 126.826 20.7799 130.501C23.3794 134.177 28.4667 135.05 32.1426 132.45Z" fill="#A2FF59"/>
<path d="M39.67 110.488C39.3758 110.696 39.1763 111.012 39.1153 111.367C39.0544 111.723 39.1371 112.087 39.3451 112.381C39.5532 112.676 39.8696 112.875 40.2247 112.936C40.5799 112.997 40.9447 112.914 41.2389 112.706L93.5354 75.7261C93.8286 75.5177 94.0271 75.2015 94.0875 74.8468C94.1479 74.4922 94.0651 74.1281 93.8574 73.8344C93.6497 73.5407 93.334 73.3413 92.9795 73.28C92.625 73.2188 92.2607 73.3006 91.9664 73.5076L39.67 110.488Z" fill="black"/>
<path d="M44.3767 117.143C44.0825 117.351 43.8827 117.667 43.8213 118.022C43.7598 118.377 43.8418 118.741 44.0491 119.036C44.2563 119.33 44.572 119.53 44.9268 119.592C45.2815 119.654 45.6463 119.572 45.941 119.365L45.9457 119.362L87.0914 90.2668C87.3856 90.0587 87.5851 89.7423 87.646 89.3872C87.7069 89.0321 87.6243 88.6673 87.4162 88.3731C87.3132 88.2274 87.1825 88.1035 87.0316 88.0083C86.8806 87.9131 86.7125 87.8486 86.5366 87.8185C86.1814 87.7575 85.8166 87.8402 85.5224 88.0482L44.3767 117.143Z" fill="black"/>
<path d="M116.837 86.7524L22.9487 153.143L0.449768 121.329L94.338 54.9379L116.837 86.7524ZM23.4967 149.948L113.642 86.2044L93.7899 58.1327L3.64476 121.877L23.4967 149.948Z" fill="black"/>
<path d="M67.2585 107.328L61.1531 73.9536L61.5831 53.3138L47.8227 52.8838L50.4028 76.1036L59.3 108.302C58.5616 109.199 58.109 110.298 58.0009 111.455C57.8927 112.612 58.1338 113.775 58.6932 114.794C59.2525 115.813 60.1044 116.641 61.1388 117.171C62.1733 117.701 63.3429 117.909 64.4966 117.768C65.6504 117.627 66.7354 117.143 67.6116 116.379C68.4878 115.616 69.115 114.607 69.4123 113.483C69.7096 112.36 69.6633 111.173 69.2794 110.076C68.8955 108.978 68.1916 108.022 67.2585 107.328H67.2585Z" fill="#FFB8B8"/>
<path d="M46.9626 55.0338C51.9481 53.135 57.4577 53.135 62.4431 55.0338L61.5831 37.834C61.5831 36.9305 61.4052 36.0359 61.0594 35.2012C60.7136 34.3665 60.2068 33.608 59.568 32.9692C58.9291 32.3303 58.1706 31.8235 57.3359 31.4778C56.5011 31.132 55.6064 30.9541 54.7029 30.9541V30.9541C53.7994 30.9541 52.9047 31.132 52.07 31.4778C51.2352 31.8235 50.4767 32.3303 49.8379 32.9692C49.199 33.608 48.6922 34.3665 48.3464 35.2012C48.0006 36.0359 47.8227 36.9305 47.8227 37.834L46.9626 55.0338Z" fill="#1560BD"/>
</svg>
