<svg width="485" height="648" viewBox="0 0 485 648" fill="none" xmlns="http://www.w3.org/2000/svg">
<path d="M32.2023 288.005C43.9121 288.005 53.4047 278.512 53.4047 266.802C53.4047 255.093 43.9121 245.6 32.2023 245.6C20.4926 245.6 11 255.093 11 266.802C11 278.512 20.4926 288.005 32.2023 288.005Z" fill="#FFF4CC"/>
<path d="M34.0785 274.681C33.6191 274.804 33.1335 274.769 32.6948 274.582L32.6676 274.57L26.9209 272.046C26.6542 271.929 26.4124 271.758 26.2092 271.544C26.0061 271.33 25.8457 271.077 25.7372 270.799C25.6286 270.521 25.5741 270.223 25.5767 269.923C25.5793 269.623 25.6389 269.326 25.7523 269.05C25.8656 268.774 26.0303 268.523 26.2371 268.313C26.4439 268.103 26.6886 267.937 26.9573 267.825C27.226 267.713 27.5133 267.657 27.8029 267.66C28.0925 267.664 28.3787 267.726 28.645 267.844L32.3688 269.485L37.2484 257.59C37.3616 257.314 37.5261 257.064 37.7324 256.855C37.9388 256.645 38.1831 256.479 38.4513 256.367C38.7195 256.255 39.0064 256.198 39.2956 256.201C39.5848 256.204 39.8706 256.266 40.1367 256.383H40.1375L40.1082 256.461L40.1387 256.383C40.6758 256.621 41.1001 257.069 41.3185 257.63C41.5368 258.192 41.5313 258.82 41.3033 259.377L35.5625 273.363C35.4294 273.685 35.2264 273.971 34.9692 274.199C34.7121 274.427 34.4078 274.591 34.0797 274.677L34.0785 274.681Z" fill="white"/>
<path d="M333.684 125.012H206.448C204.87 125.012 203.356 124.383 202.239 123.265C201.123 122.147 200.496 120.63 200.496 119.049C200.496 117.467 201.123 115.95 202.239 114.832C203.356 113.714 204.87 113.085 206.448 113.085H333.684C335.262 113.085 336.776 113.714 337.893 114.832C339.009 115.95 339.636 117.467 339.636 119.049C339.636 120.63 339.009 122.147 337.893 123.265C336.776 124.383 335.262 125.012 333.684 125.012Z" fill="#FFF4CC"/>
<path d="M358.831 144.889H206.463C204.88 144.887 203.362 144.258 202.243 143.139C201.124 142.021 200.496 140.506 200.496 138.926C200.496 137.346 201.124 135.83 202.243 134.712C203.362 133.594 204.88 132.965 206.463 132.963H358.831C359.616 132.962 360.394 133.115 361.12 133.414C361.846 133.713 362.505 134.152 363.061 134.706C363.617 135.26 364.058 135.918 364.358 136.642C364.659 137.366 364.814 138.142 364.814 138.926C364.814 139.709 364.659 140.486 364.358 141.21C364.058 141.934 363.617 142.591 363.061 143.145C362.505 143.699 361.846 144.138 361.12 144.437C360.394 144.736 359.616 144.89 358.831 144.889Z" fill="#FFF4CC"/>
<path d="M333.684 203.195H206.448C204.87 203.195 203.356 203.824 202.239 204.942C201.123 206.06 200.496 207.577 200.496 209.158C200.496 210.74 201.123 212.257 202.239 213.375C203.356 214.493 204.87 215.122 206.448 215.122H333.684C335.263 215.122 336.777 214.493 337.893 213.375C339.009 212.257 339.636 210.74 339.636 209.158C339.636 207.577 339.009 206.06 337.893 204.942C336.777 203.824 335.263 203.195 333.684 203.195Z" fill="black"/>
<path d="M358.839 224.398H206.471C204.886 224.398 203.366 225.026 202.246 226.144C201.125 227.263 200.496 228.779 200.496 230.361C200.496 231.942 201.125 233.459 202.246 234.577C203.366 235.696 204.886 236.324 206.471 236.324H358.839C360.424 236.324 361.943 235.696 363.064 234.577C364.184 233.459 364.814 231.942 364.814 230.361C364.814 228.779 364.184 227.263 363.064 226.144C361.943 225.026 360.424 224.398 358.839 224.398Z" fill="black"/>
<path d="M333.684 306.557H206.448C204.87 306.557 203.356 305.928 202.239 304.81C201.123 303.692 200.496 302.175 200.496 300.594C200.496 299.012 201.123 297.495 202.239 296.377C203.356 295.259 204.87 294.63 206.448 294.63H333.684C335.262 294.63 336.776 295.259 337.893 296.377C339.009 297.495 339.636 299.012 339.636 300.594C339.636 302.175 339.009 303.692 337.893 304.81C336.776 305.928 335.262 306.557 333.684 306.557Z" fill="black"/>
<path d="M358.831 326.434H206.463C204.88 326.432 203.362 325.803 202.243 324.684C201.124 323.566 200.496 322.051 200.496 320.471C200.496 318.891 201.124 317.375 202.243 316.257C203.362 315.139 204.88 314.51 206.463 314.508H358.831C359.616 314.507 360.394 314.66 361.12 314.959C361.846 315.258 362.505 315.697 363.061 316.251C363.617 316.805 364.058 317.463 364.358 318.187C364.659 318.911 364.814 319.687 364.814 320.471C364.814 321.254 364.659 322.031 364.358 322.755C364.058 323.479 363.617 324.136 363.061 324.69C362.505 325.244 361.846 325.683 361.12 325.982C360.394 326.281 359.616 326.435 358.831 326.434Z" fill="black"/>
<path d="M152.791 150.189C164.5 150.189 173.993 140.697 173.993 128.987C173.993 117.277 164.5 107.785 152.791 107.785C141.081 107.785 131.588 117.277 131.588 128.987C131.588 140.697 141.081 150.189 152.791 150.189Z" fill="#FFF4CC"/>
<path d="M150.778 136.938C150.297 136.939 149.829 136.787 149.444 136.504L149.42 136.487L144.393 132.728C144.16 132.554 143.964 132.336 143.816 132.088C143.669 131.84 143.573 131.565 143.534 131.281C143.495 130.996 143.514 130.707 143.59 130.429C143.666 130.152 143.797 129.892 143.976 129.664C144.154 129.436 144.377 129.245 144.632 129.101C144.886 128.958 145.167 128.864 145.458 128.827C145.75 128.79 146.045 128.809 146.329 128.884C146.613 128.958 146.879 129.087 147.111 129.262L150.367 131.703L158.061 121.891C158.239 121.663 158.462 121.473 158.716 121.329C158.969 121.186 159.25 121.093 159.541 121.055C159.831 121.018 160.127 121.036 160.41 121.11C160.693 121.184 160.959 121.312 161.191 121.487H161.192L161.144 121.552L161.193 121.487C161.663 121.84 161.97 122.36 162.047 122.934C162.125 123.508 161.966 124.088 161.606 124.548L152.557 136.084C152.348 136.35 152.078 136.565 151.77 136.712C151.462 136.86 151.123 136.936 150.78 136.935L150.778 136.938Z" fill="white"/>
<path d="M176.643 219.758C176.644 222.455 176.097 225.125 175.032 227.617C173.967 230.109 172.406 232.373 170.437 234.281C168.468 236.188 166.131 237.701 163.558 238.734C160.986 239.766 158.228 240.298 155.443 240.298C155.261 240.302 155.079 240.295 154.897 240.277C150.728 240.174 146.683 238.882 143.268 236.563C139.854 234.245 137.221 231.002 135.7 227.242C134.178 223.481 133.836 219.37 134.715 215.422C135.595 211.474 137.657 207.865 140.644 205.047C143.631 202.228 147.41 200.325 151.508 199.576C155.607 198.827 159.842 199.265 163.684 200.835C167.527 202.405 170.806 205.038 173.111 208.404C175.416 211.77 176.644 215.719 176.643 219.758Z" fill="black"/>
<path d="M152.791 331.734C164.5 331.734 173.993 322.242 173.993 310.532C173.993 298.822 164.5 289.33 152.791 289.33C141.081 289.33 131.588 298.822 131.588 310.532C131.588 322.242 141.081 331.734 152.791 331.734Z" fill="black"/>
<path d="M176.643 219.61C176.644 222.326 176.094 225.016 175.023 227.526C173.953 230.036 172.383 232.316 170.403 234.238C168.424 236.159 166.074 237.683 163.488 238.723C160.901 239.763 158.129 240.298 155.329 240.298C155.146 240.302 154.962 240.295 154.78 240.277C152.026 233.613 150.964 226.404 151.684 219.259C152.405 212.113 154.886 205.24 158.918 199.22C163.877 200.045 168.376 202.543 171.619 206.274C174.863 210.006 176.642 214.729 176.643 219.61Z" fill="#FFF4CC"/>
<path d="M280.838 277.674C280.151 278.797 279.044 279.602 277.762 279.912C276.479 280.222 275.126 280.011 273.999 279.326L215.947 244.015C215.389 243.676 214.904 243.23 214.519 242.704C214.134 242.178 213.856 241.581 213.703 240.948C213.549 240.314 213.521 239.657 213.622 239.013C213.723 238.369 213.95 237.752 214.29 237.196C214.631 236.639 215.078 236.155 215.605 235.771C216.133 235.387 216.732 235.111 217.367 234.957C218.002 234.804 218.661 234.777 219.306 234.877C219.952 234.978 220.571 235.204 221.129 235.543L279.181 270.854C280.308 271.539 281.115 272.643 281.426 273.922C281.737 275.201 281.525 276.55 280.838 277.674Z" fill="#3F3D56"/>
<path d="M222.786 242.363C218.686 249.065 212.686 254.405 205.543 257.706C198.401 261.007 190.437 262.123 182.659 260.911C174.881 259.699 167.638 256.214 161.846 250.897C156.054 245.58 151.973 238.669 150.119 231.039C148.265 223.409 148.722 215.403 151.432 208.032C154.141 200.661 158.982 194.257 165.341 189.629C171.701 185.001 179.294 182.358 187.159 182.034C195.025 181.709 202.811 183.718 209.532 187.806C218.535 193.297 224.987 202.124 227.471 212.352C229.956 222.579 228.271 233.373 222.786 242.363ZM163.318 206.191C160.243 211.218 158.733 217.041 158.977 222.924C159.221 228.806 161.208 234.485 164.689 239.241C168.169 243.998 172.986 247.618 178.53 249.644C184.073 251.671 190.095 252.013 195.833 250.626C201.572 249.24 206.769 246.188 210.768 241.856C214.767 237.524 217.388 232.107 218.3 226.29C219.211 220.472 218.372 214.516 215.889 209.174C213.406 203.832 209.391 199.344 204.35 196.278C197.588 192.176 189.471 190.915 181.779 192.774C174.086 194.632 167.447 199.457 163.318 206.191Z" fill="#3F3D56"/>
<path d="M349.828 594.594H339.551L341.386 537.702L368.548 539.17L349.828 594.594Z" fill="#FFB8B8"/>
<path d="M351.231 627.29C348.129 628.706 345.53 617.235 342.914 619.807C335.594 627 328.032 628.566 318.263 625.425L318.036 625.387C317.447 625.198 316.902 624.891 316.435 624.484C315.967 624.078 315.587 623.581 315.318 623.024C315.048 622.466 314.894 621.86 314.866 621.241C314.838 620.623 314.935 620.005 315.153 619.425C315.413 618.731 315.838 618.111 316.39 617.618C316.943 617.124 317.608 616.773 318.327 616.593L326.111 614.647L338.333 593.153L350.809 592.31C353.591 595.857 355.532 599.987 356.487 604.392C357.442 608.796 357.385 613.36 356.322 617.739C355.19 622.361 353.442 626.281 351.231 627.29Z" fill="#2F2E41"/>
<path d="M447.467 587.074L437.91 590.854L418.691 537.275L444.489 528.65L447.467 587.074Z" fill="#FFB8B8"/>
<path d="M460.796 616.962C458.432 619.42 451.797 609.709 450.31 613.063C446.149 622.443 439.693 626.681 429.453 627.354L429.229 627.402C428.611 627.442 427.991 627.357 427.407 627.151C426.823 626.945 426.287 626.623 425.831 626.204C425.376 625.785 425.01 625.277 424.756 624.712C424.502 624.148 424.365 623.537 424.354 622.918C424.341 622.177 424.508 621.444 424.841 620.782C425.173 620.12 425.662 619.548 426.264 619.117L432.787 614.444L436.247 589.962L447.539 584.59C451.43 586.864 454.754 589.991 457.262 593.736C459.77 597.48 461.396 601.745 462.018 606.208C462.665 610.922 462.482 615.21 460.796 616.962Z" fill="#2F2E41"/>
<path d="M416.266 312.361L400.488 316.418C399.294 316.725 398.047 316.761 396.837 316.523C395.627 316.285 394.486 315.779 393.498 315.042C392.509 314.306 391.698 313.357 391.124 312.266C390.55 311.176 390.227 309.97 390.18 308.738C390.136 307.605 390.326 306.476 390.738 305.42C391.15 304.364 391.775 303.404 392.574 302.6C393.373 301.796 394.329 301.165 395.383 300.746C396.436 300.328 397.565 300.131 398.698 300.167L412.596 300.616L439.377 290.864L414.064 271.986L417 245.559L466.332 285.163C467.211 285.869 467.936 286.749 468.46 287.748C468.983 288.748 469.295 289.844 469.375 290.969C469.511 292.861 468.986 294.74 467.89 296.288C466.794 297.836 465.196 298.956 463.367 299.457C451.808 308.89 434.968 311.779 416.266 312.361Z" fill="#FFB8B8"/>
<path d="M380.296 213.259C394.486 213.259 405.989 201.756 405.989 187.566C405.989 173.376 394.486 161.873 380.296 161.873C366.106 161.873 354.603 173.376 354.603 187.566C354.603 201.756 366.106 213.259 380.296 213.259Z" fill="#FFB8B8"/>
<path d="M411.862 222.802L377.36 236.75C378.373 225.843 375.514 214.928 369.285 205.918L397.914 199.311C397.542 208.055 402.27 215.871 411.862 222.802Z" fill="#FFB8B8"/>
<path d="M418.102 282.63C390.289 284.856 375.076 281.163 351.667 267.582L360.476 247.027C360.034 243.932 360.453 240.775 361.689 237.904C362.924 235.032 364.928 232.556 367.479 230.749L376.626 224.27L404.521 216.195L405.772 216.258C409.483 216.443 412.999 217.976 415.661 220.567C418.323 223.159 419.949 226.633 420.234 230.337C426.294 248.448 426.334 265.954 418.102 282.63Z" fill="#960B24"/>
<path d="M412.596 325.574L353.135 318.968L348.73 299.881C338.967 285.144 343.229 271.644 354.603 258.773C375.336 272.079 394.581 277.828 422.139 273.454C414.81 291.278 408.042 308.794 412.596 325.574Z" fill="#2F2E41"/>
<path d="M458.843 548.003L411.495 545.434L396.079 422.841L383.599 544.7L327.442 542.13C344.572 462.019 356.473 385.968 353.135 316.031L411.862 321.17C431.765 342.156 441.648 375.655 447.465 415.5C453.283 455.345 457.971 501.536 458.843 548.003Z" fill="#2F2E41"/>
<path d="M408.58 164.176C413.457 164.176 417.411 160.222 417.411 155.345C417.411 150.467 413.457 146.514 408.58 146.514C403.703 146.514 399.749 150.467 399.749 155.345C399.749 160.222 403.703 164.176 408.58 164.176Z" fill="#2F2E41"/>
<path d="M399.48 153.183C399.625 150.942 400.619 148.841 402.259 147.308C403.899 145.774 406.062 144.923 408.307 144.929C408.125 144.906 407.944 144.877 407.758 144.866C405.421 144.715 403.12 145.5 401.36 147.046C399.601 148.593 398.529 150.775 398.379 153.112C398.228 155.449 399.013 157.751 400.559 159.51C402.106 161.269 404.288 162.341 406.625 162.492C406.811 162.504 406.994 162.499 407.178 162.499C404.95 162.217 402.914 161.097 401.484 159.366C400.054 157.635 399.337 155.424 399.48 153.183Z" fill="#2F2E41"/>
<path d="M399.43 156.954C391.554 150.42 368.963 158.724 367.506 163.117C356.855 164.569 348.791 170.783 348.791 181.832C355.123 184.426 362.325 184.106 370.11 181.832C382.52 191.945 383.37 204.659 375.823 219.261L385.108 219.447L396.617 202.626L397.168 219.688L418.451 219.261V194.81C418.52 186.68 416.649 178.651 412.993 171.39C409.676 164.946 404.529 161.184 399.43 156.954Z" fill="#2F2E41"/>
<path d="M379.611 200.154C381.944 200.154 383.834 197.507 383.834 194.241C383.834 190.976 381.944 188.329 379.611 188.329C377.279 188.329 375.388 190.976 375.388 194.241C375.388 197.507 377.279 200.154 379.611 200.154Z" fill="#FFB8B8"/>
<path d="M266.314 260.989C267.861 259.762 269.649 258.877 271.56 258.392C273.471 257.907 275.463 257.834 277.405 258.177C279.346 258.519 281.194 259.27 282.827 260.38C284.459 261.49 285.84 262.934 286.878 264.617C287.205 265.151 287.493 265.708 287.742 266.283L348.729 278.666L364.967 240.332C365.587 238.868 366.49 237.541 367.624 236.429C368.757 235.317 370.099 234.441 371.572 233.853C373.044 233.265 374.618 232.975 376.202 233.002C377.786 233.028 379.349 233.369 380.802 234.006C382.254 234.642 383.566 235.561 384.663 236.71C385.759 237.859 386.619 239.215 387.191 240.7C387.763 242.184 388.037 243.768 387.996 245.359C387.956 246.95 387.602 248.518 386.955 249.971L363.16 303.414L363.094 303.529C361.714 305.424 359.762 306.821 357.529 307.514C355.296 308.207 352.9 308.158 350.697 307.374L283.48 283.175C283.119 283.458 282.744 283.722 282.355 283.966C280.679 285.009 278.803 285.684 276.849 285.948C274.895 286.211 272.908 286.057 271.017 285.496C269.127 284.934 267.376 283.977 265.879 282.688C264.383 281.4 263.174 279.807 262.332 278.017C262.161 277.655 262.006 277.289 261.868 276.919C260.844 274.132 260.723 271.091 261.521 268.23C262.319 265.37 263.997 262.835 266.314 260.989Z" fill="#FFB8B8"/>
<path d="M200 209.005C200.003 207.414 200.699 205.888 201.934 204.762C203.17 203.636 204.845 203.003 206.592 203H212.5C214.5 206.5 218 211.5 218 215H206.592C204.846 215 203.171 214.368 201.935 213.244C200.7 212.121 200.004 210.596 200 209.005Z" fill="#FFF4CC"/>
<path d="M200.5 230.5C200 229.5 201 227 201.5 226.5C202 226 203.658 224.5 205.5 224.5H218.5C219 226.5 216.5 234 215 236.5H205.5C203 235.5 201.489 233.987 201 233.5C200.511 233.013 200.501 231.189 200.5 230.5Z" fill="#FFF4CC"/>
</svg>
