<svg width="274" height="504" viewBox="0 0 274 504" fill="none" xmlns="http://www.w3.org/2000/svg">
<g id="undraw_Add_file_re_s4qf 1" clip-path="url(#clip0)">
<g id="undraw_portfolio_feedback_exfk 1" clip-path="url(#clip1)">
<path id="Vector" d="M167.16 93.3861L183.161 118.169L235.195 117.754C235.195 117.754 257.069 105.401 261.467 121.688C262.974 127.266 240.076 128.776 237.92 128.907C232.53 129.233 178.77 138.561 175.451 133.785C172.132 129.008 154.674 112.321 154.674 112.321L167.16 93.3861Z" fill="#FFB8B8"/>
<path id="Vector_2" d="M173.631 3.07289C173.631 3.07289 186.653 -1.57782 195.024 17.025C203.395 35.6279 216.417 56.091 216.417 56.091L208.976 57.9513C208.976 57.9513 207.116 44.9293 202.465 43.069L204.326 59.8116C204.326 59.8116 148.517 79.3446 123.403 57.9513L124.333 51.4403C124.333 51.4403 120.613 52.3705 120.613 57.9513L117.822 55.1609C117.822 55.1609 120.613 49.58 128.984 42.1389C134.478 37.2549 136.367 27.963 137.015 22.1536C137.502 17.3027 139.442 12.7119 142.583 8.98341C148.147 2.53607 158.283 -4.31658 173.631 3.07289Z" fill="#2F2E41"/>
<path id="Vector_3" d="M98.2832 361.68L65.8522 409.768L96.0467 439.962L99.9608 432.134L93.2509 416.478C93.2509 416.478 94.3692 401.94 98.2833 398.026C102.197 394.111 119.531 370.627 119.531 370.627L98.2832 361.68Z" fill="#FFB8B8"/>
<path id="Vector_4" d="M139.661 206.235C139.661 206.235 133.511 215.968 146.372 257.905C146.372 257.905 86.3845 359.148 95.8902 365.858C105.396 372.568 131.119 387.417 137.829 382.944C144.539 378.471 193.34 226.924 193.34 226.924L139.661 206.235Z" fill="#2F2E41"/>
<path id="Vector_5" d="M71.7233 401.101L61.9381 410.886C56.9057 415.919 53.5508 423.188 63.0564 429.338C72.5621 435.489 105.552 458.415 116.735 451.146C127.919 443.876 103.316 437.167 103.316 437.167C103.316 437.167 99.2475 422.083 97.0879 425.431C94.9283 428.779 94.9284 435.489 94.9284 435.489L71.7233 401.101Z" fill="#2F2E41"/>
<path id="Vector_6" d="M189.985 387.961C189.985 387.961 207.878 420.951 207.878 424.865C207.878 428.779 206.759 439.962 206.759 439.962L240.868 448.35L252.61 442.758L248.696 432.693C248.696 432.693 227.448 425.424 222.975 411.445C218.502 397.466 213.469 382.928 213.469 382.928L189.985 387.961Z" fill="#FFB8B8"/>
<path id="Vector_7" d="M169.296 59.7364C182.266 59.7364 192.781 49.222 192.781 36.2519C192.781 23.2817 182.266 12.7673 169.296 12.7673C156.326 12.7673 145.811 23.2817 145.811 36.2519C145.811 49.222 156.326 59.7364 169.296 59.7364Z" fill="#FFB8B8"/>
<path id="Vector_8" d="M175.447 56.3815L164.235 88.5972L139.661 77.6294C139.661 77.6294 156.435 51.9082 156.435 48.5533L175.447 56.3815Z" fill="#FFB8B8"/>
<path id="Vector_9" d="M178.802 171.008H149.166C149.166 171.008 127.919 203.439 140.22 237.548C142.53 244.488 144.407 251.565 145.84 258.738C150.133 278.631 154.406 305.579 158.786 330.341C164.938 365.123 171.299 395.594 178.214 396.147C192.193 397.265 219.376 397.079 219.376 391.487C219.376 385.896 201.168 224.128 201.168 224.128L197.254 217.418L196.514 188.191C196.397 183.579 194.477 179.196 191.166 175.984C187.854 172.771 183.415 170.985 178.802 171.008H178.802Z" fill="#2F2E41"/>
<path id="Vector_10" d="M208.157 424.586C208.157 424.586 201.727 435.489 203.405 443.317C205.082 451.145 207.878 450.027 220.179 451.145C232.481 452.264 274.417 452.264 274.417 444.436C274.417 436.607 241.703 426.441 241.565 429.567C241.427 432.693 240.309 438.844 243.664 439.962C247.019 441.081 243.943 440.242 243.943 440.242L208.157 424.586Z" fill="#2F2E41"/>
<path id="Vector_11" d="M151.387 186.592C155.76 186.592 165.165 175.36 170.087 180.283C173.667 183.862 176.704 187.301 179.384 190.335C187.078 199.044 193.803 207.026 198.477 201.299C199.183 200.434 196.808 202.433 198.789 201.085C199.61 200.526 200.237 199.725 200.583 198.793C200.93 197.862 200.977 196.846 200.72 195.886C193.939 174.64 189.716 154.286 195.108 137.286C195.509 135.936 195.7 134.533 195.675 133.126C195.676 132.92 195.685 132.714 195.704 132.508C195.989 129.37 195.918 118.134 183.043 105.26C171.277 93.4933 169.02 86.2631 168.722 83.0004C168.652 82.2406 149.685 62.5617 149.685 62.5617C148.692 62.1447 147.587 62.0762 146.55 62.3673C145.513 62.6583 144.605 63.2918 143.974 64.1647L137.899 72.5185C131.294 85.5946 128.412 100.235 129.566 114.838C131.211 133.794 134.067 171.28 136.412 184.802C136.607 186.034 137.26 187.147 138.242 187.917C138.918 188.441 139.724 188.771 140.573 188.872C141.423 188.972 142.283 188.84 143.063 188.488C145.672 187.273 148.509 186.627 151.387 186.592Z" fill="#1560BD"/>
<path id="Vector_12" opacity="0.2" d="M158.168 332.108L147.148 258.682L156.111 337.948L158.168 332.108Z" fill="black"/>
<path id="hand" d="M172.16 114.386L188.161 139.169L240.195 138.754C240.195 138.754 262.069 126.401 266.467 142.688C267.974 148.266 245.076 149.776 242.92 149.907C237.53 150.233 183.77 159.561 180.451 154.785C177.132 150.008 159.674 133.321 159.674 133.321L172.16 114.386Z" fill="#FFB8B8"/>
<path id="Vector_13" d="M148.231 97.0003C148.231 97.0003 157.316 91.0768 169.79 101.61C182.263 112.143 184.758 121.567 184.758 121.567L155.376 139.03C155.376 139.03 126.672 108.467 148.231 97.0003Z" fill="#1560BD"/>
<path id="Vector_14" d="M194.445 37.3005C185.174 31.2071 177.669 24.1887 172.705 15.8399C172.705 15.8399 155.691 33.0084 145.293 33.8669C134.896 34.7253 144.348 13.2646 144.348 13.2646L163.252 8.97253L181.211 10.6894L195.39 19.2736L194.445 37.3005Z" fill="#2F2E41"/>
<path id="Vector_15" d="M145.917 40.1689C147.298 40.1689 148.417 38.1542 148.417 35.6689C148.417 33.1837 147.298 31.1689 145.917 31.1689C144.537 31.1689 143.417 33.1837 143.417 35.6689C143.417 38.1542 144.537 40.1689 145.917 40.1689Z" fill="#FFB8B8"/>
</g>
</g>
<defs>
<clipPath id="clip0">
<rect width="274" height="504" fill="white"/>
</clipPath>
<clipPath id="clip1">
<rect width="245" height="482" fill="white" transform="translate(44 -18)"/>
</clipPath>
</defs>
</svg>
