<svg width="512" height="512" viewBox="0 0 512 512" fill="none" xmlns="http://www.w3.org/2000/svg">
<path d="M10 256C10 120.359 120.359 10 256 10C391.641 10 502 120.359 502 256C502 391.641 391.641 502 256 502C120.359 502 10 391.641 10 256Z" stroke="black" stroke-width="20"/>
<path d="M368 271.5H271V370C271 381.777 267.777 389.332 256 389.332C244.223 389.332 239 379.777 239 368V271.5H144C132.223 271.5 122.668 267.777 122.668 256C122.668 244.223 132.223 242 144 242H239V144C239 132.223 244.223 122.668 256 122.668C267.777 122.668 271 132.223 271 144V242H368C379.777 242 389.332 244.223 389.332 256C389.332 267.777 379.777 271.5 368 271.5Z" fill="black"/>
</svg>
