<svg width="502" height="508" viewBox="0 0 502 508" fill="none" xmlns="http://www.w3.org/2000/svg">
<path d="M475.108 225.915C491.077 241.928 491.067 267.965 475.088 283.968C475.088 283.968 475.088 283.969 475.087 283.969C467.327 291.732 457.033 295.999 446.074 295.999H438.898H436.109V298.791V441.793C436.109 468.548 414.353 490.322 387.612 490.322H311.651C305.492 490.322 300.495 485.324 300.495 479.158V367.044C300.495 352.589 288.752 340.836 274.31 340.836H229.506C215.064 340.836 203.317 352.589 203.317 367.044V479.158C203.317 485.324 198.323 490.322 192.161 490.322H116.2C89.4626 490.322 67.7032 468.548 67.7032 441.793V298.791V295.999H64.9143H57.1795C56.8143 295.999 56.4508 295.982 56.0958 295.947L56.0203 295.94L55.9446 295.936C45.6419 295.493 36.0196 291.266 28.7289 283.963L28.7278 283.962C12.7627 267.987 12.7349 241.994 28.6465 225.977L28.6718 225.952L28.6964 225.925C28.7258 225.894 28.7655 225.854 28.8369 225.783L222.894 31.5685C230.65 23.8054 240.944 19.5385 251.908 19.5385C262.871 19.5385 273.165 23.8087 280.918 31.5717V31.5722L475.108 225.915ZM475.108 225.915L475.109 225.917L475.11 225.918L477.081 223.943L475.108 225.915Z" stroke="black" stroke-width="25"/>
</svg>
