<svg width="512" height="512" viewBox="0 0 512 512" fill="none" xmlns="http://www.w3.org/2000/svg">
<g clip-path="url(#clip0)">
<path d="M498.195 222.695C498.184 222.684 498.172 222.672 498.16 222.66L289.305 13.8125C280.402 4.90625 268.566 0 255.977 0C243.387 0 231.551 4.90234 222.645 13.8086L13.8984 222.551C13.8281 222.621 13.7539 222.695 13.6875 222.766C-4.59374 241.152 -4.56249 270.984 13.7813 289.324C22.1563 297.707 33.2188 302.563 45.0508 303.07C45.5313 303.117 46.0195 303.141 46.5078 303.141H54.8281V456.84C54.8281 487.254 79.5781 512 109.996 512H191.707C199.992 512 206.707 505.285 206.707 497V376.5C206.707 362.621 218 351.332 231.879 351.332H280.074C293.953 351.332 305.242 362.621 305.242 376.5V497C305.242 505.285 311.961 512 320.242 512H401.953C432.375 512 457.121 487.254 457.121 456.84V303.141H464.84C477.426 303.141 489.262 298.238 498.172 289.332C516.531 270.961 516.543 241.078 498.195 222.695Z" fill="#120C46"/>
<path d="M498.195 222.695C498.184 222.684 498.172 222.672 498.16 222.66L289.305 13.8125C280.402 4.90625 268.566 0 255.977 0H255.973V351.332H280.074C293.953 351.332 305.242 362.621 305.242 376.5V497C305.242 505.285 311.961 512 320.242 512H401.953C432.375 512 457.121 487.254 457.121 456.84V303.141H464.84C477.426 303.141 489.262 298.238 498.172 289.332C516.531 270.961 516.543 241.078 498.195 222.695Z" fill="#120C46"/>
</g>
<defs>
<clipPath id="clip0">
<rect width="512" height="512" fill="white"/>
</clipPath>
</defs>
</svg>
