<svg width="426" height="512" viewBox="0 0 426 512" fill="none" xmlns="http://www.w3.org/2000/svg">
<g clip-path="url(#clip0)">
<path d="M245 89.1733C239.112 89.1733 234.333 84.3947 234.333 78.5067V42.6667C234.333 30.912 224.755 21.3333 213 21.3333C201.245 21.3333 191.667 30.912 191.667 42.6667V78.5067C191.667 84.3947 186.888 89.1733 181 89.1733C175.112 89.1733 170.333 84.416 170.333 78.5067V42.6667C170.333 19.136 189.469 0 213 0C236.531 0 255.667 19.136 255.667 42.6667V78.5067C255.667 84.416 250.888 89.1733 245 89.1733Z" fill="black"/>
<path d="M213 512C171.827 512 138.333 478.507 138.333 437.333C138.333 431.445 143.112 426.667 149 426.667C154.888 426.667 159.667 431.445 159.667 437.333C159.667 466.731 183.603 490.667 213 490.667C242.397 490.667 266.333 466.731 266.333 437.333C266.333 431.445 271.112 426.667 277 426.667C282.888 426.667 287.667 431.445 287.667 437.333C287.667 478.507 254.173 512 213 512Z" fill="black"/>
<path d="M394.333 448H31.6667C14.024 448 -0.333313 433.643 -0.333313 416C-0.333313 406.635 3.74136 397.781 10.8667 391.68C44.488 363.264 63.6667 321.92 63.6667 278.144V213.333C63.6667 130.987 130.653 64 213 64C295.347 64 362.333 130.987 362.333 213.333V278.144C362.333 321.941 381.512 363.264 414.963 391.531C422.259 397.781 426.333 406.635 426.333 416C426.333 433.643 411.997 448 394.333 448ZM213 85.3333C142.408 85.3333 85 142.741 85 213.333V278.144C85 328.235 63.0694 375.488 24.8187 407.829C22.3654 409.92 21 412.885 21 416C21 421.888 25.7787 426.667 31.6667 426.667H394.333C400.221 426.667 405 421.888 405 416C405 412.885 403.635 409.92 401.267 407.893C362.952 375.488 341 328.213 341 278.144V213.333C341 142.741 283.592 85.3333 213 85.3333Z" fill="black"/>
</g>
<defs>
<clipPath id="clip0">
<rect width="426" height="512" fill="white"/>
</clipPath>
</defs>
</svg>
