<svg width="426" height="512" viewBox="0 0 426 512" fill="none" xmlns="http://www.w3.org/2000/svg">
<g clip-path="url(#clip0)">
<path d="M413.085 360.811C380.829 333.547 362.333 293.696 362.333 251.477V192C362.333 116.928 306.568 54.784 234.333 44.3733V21.3333C234.333 9.536 224.776 0 213 0C201.224 0 191.667 9.536 191.667 21.3333V44.3733C119.411 54.784 63.6667 116.928 63.6667 192V251.477C63.6667 293.696 45.1707 333.547 12.7227 360.981C4.42399 368.085 -0.333344 378.411 -0.333344 389.333C-0.333344 409.92 16.4133 426.667 37 426.667H389C409.587 426.667 426.333 409.92 426.333 389.333C426.333 378.411 421.576 368.085 413.085 360.811Z" fill="#120C46"/>
<path d="M213 512C251.635 512 283.955 484.459 291.379 448H134.621C142.045 484.459 174.365 512 213 512Z" fill="#120C46"/>
</g>
<defs>
<clipPath id="clip0">
<rect width="426" height="512" fill="white"/>
</clipPath>
</defs>
</svg>
