<svg width="491" height="491" viewBox="0 0 491 491" fill="none" xmlns="http://www.w3.org/2000/svg">
<g clip-path="url(#clip0)">
<path d="M462.784 209.088C455.232 203.52 445.717 196.565 444.565 192.021C445.049 183.225 447.561 174.661 451.904 166.997C458.56 151.722 465.429 135.893 457.792 122.73C450.155 109.567 432.789 107.434 416.085 105.663C407.427 105.605 398.897 103.569 391.146 99.711C387.282 91.933 385.253 83.372 385.215 74.687C383.338 57.983 381.396 40.703 368.148 32.98C354.9 25.257 339.049 32.02 323.775 38.761C316.103 43.102 307.532 45.613 298.73 46.1C294.122 44.863 287.189 35.433 281.663 27.881C271.978 14.825 261.076 0.019989 245.332 0.019989C229.588 0.019989 218.687 14.825 209.065 27.881C203.476 35.454 196.542 44.948 191.998 46.121C183.204 45.591 174.642 43.083 166.953 38.782C151.593 32.019 135.764 25.278 122.644 32.873C109.524 40.468 107.327 57.876 105.449 74.686C105.388 83.341 103.36 91.869 99.518 99.625C91.782 103.428 83.285 105.426 74.665 105.47C57.94 107.347 40.638 109.289 32.937 122.537C25.236 135.785 32 151.616 38.741 166.912C43.098 174.601 45.61 183.196 46.08 192.021C44.843 196.629 35.413 203.584 27.861 209.088C14.805 218.688 0 229.611 0 245.355C0 261.099 14.805 272.022 27.883 281.622C35.435 287.19 44.95 294.145 46.102 298.689C45.618 307.485 43.106 316.049 38.763 323.713C32.107 338.988 25.238 354.817 32.875 367.98C40.512 381.143 57.878 383.276 74.582 385.047C83.24 385.105 91.77 387.141 99.521 390.999C103.385 398.777 105.414 407.338 105.452 416.023C107.329 432.727 109.271 450.007 122.519 457.73C135.767 465.453 151.49 458.498 166.786 451.842C174.535 447.549 183.156 445.069 192.002 444.589C196.61 445.826 203.543 455.256 209.069 462.808C218.69 475.864 229.592 490.669 245.336 490.669C261.08 490.669 271.981 475.864 281.603 462.808C287.192 455.235 294.126 445.741 298.67 444.568C307.47 445.066 316.038 447.576 323.715 451.907C338.99 458.563 354.819 465.39 367.96 457.816C381.101 450.243 383.277 432.813 385.155 416.088C385.216 407.433 387.244 398.905 391.086 391.149C398.836 387.315 407.357 385.294 416.003 385.24C432.728 383.363 450.03 381.421 457.731 368.173C465.432 354.925 458.478 339.202 451.843 323.906C447.5 316.178 445.017 307.544 444.59 298.69C445.827 294.082 455.257 287.127 462.809 281.623C475.865 272.002 490.692 261.079 490.692 245.356C490.692 229.633 475.861 218.688 462.784 209.088Z" fill="#D444EC"/>
<path d="M181.333 298.688C177.976 298.688 174.814 297.107 172.8 294.421L128 234.688V288.021C128 293.912 123.224 298.688 117.333 298.688C111.442 298.688 106.666 293.912 106.666 288.021V202.688C106.666 196.797 111.442 192.021 117.333 192.021C120.69 192.021 123.852 193.602 125.866 196.288L170.666 256.021V202.688C170.666 196.797 175.442 192.021 181.333 192.021C187.224 192.021 192 196.797 192 202.688V288.021C191.997 292.61 189.058 296.683 184.704 298.133C183.618 298.501 182.48 298.688 181.333 298.688Z" fill="#FAFAFA"/>
<path d="M266.667 298.688H224C218.109 298.688 213.333 293.912 213.333 288.021V202.688C213.333 196.797 218.109 192.021 224 192.021H266.667C272.558 192.021 277.334 196.797 277.334 202.688C277.334 208.579 272.558 213.355 266.667 213.355H234.667V277.355H266.667C272.558 277.355 277.334 282.131 277.334 288.022C277.334 293.913 272.558 298.688 266.667 298.688Z" fill="#FAFAFA"/>
<path d="M266.667 256.021H224C218.109 256.021 213.333 251.245 213.333 245.354C213.333 239.463 218.109 234.687 224 234.687H266.667C272.558 234.687 277.334 239.463 277.334 245.354C277.334 251.245 272.558 256.021 266.667 256.021Z" fill="#FAFAFA"/>
<path d="M373.333 298.688C368.736 298.694 364.652 295.754 363.2 291.392L352 257.749L340.8 291.392C339.437 295.995 335.049 299.025 330.261 298.667C325.523 298.487 321.473 295.202 320.32 290.603L298.987 205.27C297.561 199.55 301.043 193.757 306.763 192.331C312.483 190.905 318.276 194.387 319.702 200.107L332.139 249.899L341.888 220.651C344.423 215.06 351.01 212.583 356.601 215.118C359.055 216.231 361.021 218.197 362.134 220.651L371.883 249.899L384.32 200.107C385.746 194.387 391.538 190.905 397.259 192.331C402.979 193.757 406.461 199.549 405.035 205.27L383.702 290.603C382.549 295.202 378.498 298.487 373.761 298.667L373.333 298.688Z" fill="#FAFAFA"/>
</g>
<defs>
<clipPath id="clip0">
<rect width="490.688" height="490.688" fill="white"/>
</clipPath>
</defs>
</svg>
