<svg width="140" height="140" viewBox="0 0 140 140" fill="none" xmlns="http://www.w3.org/2000/svg">
<g clip-path="url(#clip0)">
<path d="M140 70C140.011 78.9924 138.284 87.9022 134.915 96.2396C134.907 96.2583 134.901 96.2749 134.893 96.2935V96.2956C132.628 101.878 129.649 107.144 126.031 111.961C125.333 112.893 124.613 113.805 123.871 114.699C123.599 115.026 123.324 115.351 123.048 115.672C121.63 117.318 120.137 118.896 118.571 120.404C118.206 120.756 117.838 121.104 117.465 121.448C117.378 121.529 117.291 121.607 117.204 121.688C115.38 123.355 113.468 124.925 111.478 126.389C110.142 127.377 108.771 128.315 107.365 129.204C107.056 129.401 106.745 129.594 106.433 129.784C105.89 130.115 105.343 130.439 104.79 130.755C104.07 131.169 103.34 131.57 102.601 131.958C102.303 132.118 102.003 132.271 101.703 132.424C101.264 132.65 100.822 132.867 100.377 133.081C100.301 133.118 100.224 133.155 100.147 133.191C99.8573 133.331 99.5632 133.468 99.2692 133.605C95.4391 135.371 91.456 136.785 87.3692 137.828C87.3464 137.834 87.3257 137.838 87.3029 137.844C87.0357 137.912 86.7665 137.979 86.4973 138.043C86.2964 138.093 86.0934 138.14 85.8905 138.186C85.8654 138.194 85.8398 138.2 85.8138 138.204C85.3976 138.302 84.9813 138.395 84.5609 138.48C84.3248 138.53 84.0887 138.579 83.8526 138.627C83.7097 138.658 83.5647 138.685 83.4218 138.712C83.2416 138.747 83.0635 138.78 82.8834 138.815C82.784 138.836 82.6845 138.853 82.5831 138.869C82.3553 138.911 82.1274 138.952 81.9017 138.991C81.5165 139.058 81.1271 139.122 80.7399 139.18C80.4582 139.223 80.1786 139.265 79.897 139.304C79.5656 139.352 79.2342 139.395 78.9008 139.437C78.8097 139.451 78.7186 139.462 78.6274 139.472C78.5094 139.486 78.3914 139.501 78.2733 139.515C78.0351 139.544 77.797 139.571 77.5567 139.596C77.4325 139.611 77.3103 139.623 77.186 139.635C76.9499 139.66 76.7138 139.683 76.4777 139.704C76.1733 139.733 75.8689 139.758 75.5624 139.783C75.1896 139.812 74.8189 139.838 74.444 139.861C74.2038 139.876 73.9635 139.89 73.7212 139.903C73.1041 139.936 72.4869 139.959 71.8656 139.975C71.557 139.983 71.2464 139.99 70.9357 139.994H70.9295C70.6209 139.998 70.3103 140 69.9996 140C66.8515 140.001 63.7068 139.791 60.5869 139.37C58.2984 139.064 56.0466 138.648 53.8313 138.124C53.7422 138.103 53.6532 138.082 53.5662 138.059C53.3425 138.008 53.1209 137.952 52.8993 137.896C52.7026 137.846 52.5079 137.794 52.3112 137.743C47.2406 136.423 42.3356 134.534 37.6899 132.112C37.6671 132.099 37.6422 132.087 37.6195 132.074C37.4848 132.004 37.3523 131.936 37.2197 131.863C36.9277 131.71 36.6371 131.554 36.3479 131.395C34.7014 130.49 33.0971 129.522 31.5348 128.491C31.1331 128.228 30.7354 127.961 30.3419 127.69C30.2156 127.603 30.0914 127.516 29.9671 127.429C29.8366 127.338 29.7061 127.247 29.5777 127.156C29.236 126.913 28.8964 126.668 28.5588 126.42C27.1609 125.393 25.8044 124.316 24.4893 123.188C19.828 119.196 15.709 114.611 12.2372 109.55C11.0257 107.785 9.8949 105.964 8.8449 104.087C3.026 93.6694 -0.0197227 81.9322 -0.000366073 70C-0.000366073 31.3405 31.3402 0 69.9996 0C108.659 0 140 31.3405 140 70Z" fill="#83A5FF"/>
<path d="M91.4494 111.149C91.4515 111.178 91.4556 111.209 91.4577 111.238L91.3686 111.192C91.3707 111.165 91.3728 111.136 91.3769 111.107C91.3977 110.745 91.3728 110.316 91.4494 111.149Z" fill="#2F2E41"/>
<path d="M64.5497 101.241C83.3317 101.241 98.5575 86.0153 98.5575 67.2333C98.5575 48.4513 83.3317 33.2255 64.5497 33.2255C45.7677 33.2255 30.5419 48.4513 30.5419 67.2333C30.5419 86.0153 45.7677 101.241 64.5497 101.241Z" fill="#2F2E41"/>
<path d="M117.465 121.448C117.378 121.529 117.291 121.607 117.204 121.688C115.38 123.355 113.469 124.925 111.478 126.389C110.142 127.377 108.771 128.315 107.365 129.204C107.057 129.401 106.746 129.594 106.433 129.784C105.891 130.115 105.343 130.439 104.791 130.755C104.07 131.169 103.34 131.57 102.602 131.958C102.304 132.118 102.003 132.271 101.703 132.424C101.264 132.65 100.823 132.867 100.378 133.081C100.301 133.118 100.224 133.155 100.148 133.191L99.2716 132.464L109.56 119.888L111.629 117.36C111.629 117.36 112.456 117.36 114.351 118.739C115.398 119.519 116.388 120.373 117.312 121.295C117.362 121.346 117.414 121.396 117.465 121.448Z" fill="#D0CDE1"/>
<path d="M67.3492 99.855C78.7235 99.855 87.9442 90.6343 87.9442 79.26C87.9442 67.8857 78.7235 58.665 67.3492 58.665C55.9749 58.665 46.7542 67.8857 46.7542 79.26C46.7542 90.6343 55.9749 99.855 67.3492 99.855Z" fill="#FFBEAA"/>
<path d="M114.375 118.733L114.351 118.739L109.56 119.888L99.5864 122.283L98.2257 122.61L83.0577 126.249L81.7695 126.559L44.9698 135.39C42.4821 134.438 40.0516 133.344 37.6902 132.112C37.6675 132.099 37.6426 132.087 37.6198 132.074C37.4852 132.004 37.3527 131.936 37.2201 131.863C36.9281 131.71 36.6375 131.554 36.3482 131.395C34.7018 130.49 33.0974 129.522 31.5352 128.491C31.1334 128.228 30.7358 127.961 30.3423 127.69C30.216 127.603 30.0917 127.516 29.9675 127.429C29.837 127.338 29.7065 127.247 29.5781 127.156C29.2364 126.913 28.8967 126.668 28.5592 126.42C32.1337 119.924 40.6456 115.606 49.1574 113.243C55.5817 111.457 56.9941 105.59 56.8719 100.369C56.8408 99.1784 56.7399 97.9903 56.5695 96.8113C56.31 94.9347 55.8972 93.0825 55.3352 91.2734L75.9314 91.961L78.0562 96.8568C77.9981 97.3946 77.9794 97.9359 78.0003 98.4763C78.1618 102.492 80.6408 105.089 83.6997 106.765C84.0973 106.982 84.5053 107.185 84.9195 107.373C89.9355 109.654 95.8399 109.809 95.8399 109.809C97.6379 109.61 99.454 109.644 101.243 109.91C101.678 109.977 102.101 110.056 102.511 110.149C104.905 110.684 107.166 111.696 109.161 113.125C109.922 113.666 110.643 114.264 111.317 114.912C112.514 116.032 113.544 117.319 114.375 118.733Z" fill="#FFBEAA"/>
<path d="M48.2079 87.3455C49.1206 87.09 49.3634 85.107 48.7502 82.9164C48.1369 80.7257 46.8998 79.157 45.987 79.4125C45.0743 79.668 44.8315 81.6511 45.4447 83.8417C46.058 86.0323 47.2951 87.6011 48.2079 87.3455Z" fill="#FFBEAA"/>
<path d="M90.0004 80.052C90.1403 77.7815 89.4867 75.8936 88.5406 75.8353C87.5946 75.777 86.7143 77.5705 86.5744 79.841C86.4346 82.1116 87.0882 83.9994 88.0342 84.0577C88.9803 84.116 89.8606 82.3226 90.0004 80.052Z" fill="#FFBEAA"/>
<path d="M117.32 121.307C117.293 121.437 117.254 121.565 117.204 121.688C115.38 123.355 113.469 124.925 111.478 126.389C109.751 127.012 107.959 127.438 106.137 127.659C106.137 127.659 106.292 128.438 106.433 129.784C105.891 130.115 105.343 130.439 104.791 130.755C104.07 131.169 103.34 131.57 102.602 131.958C102.304 132.118 102.003 132.271 101.703 132.424C101.264 132.65 100.823 132.867 100.378 133.081C100.301 133.118 100.224 133.155 100.148 133.191C99.8577 133.331 99.5636 133.468 99.2695 133.605C95.4395 135.371 91.4563 136.785 87.3695 137.828C87.3468 137.834 87.326 137.838 87.3033 137.844C87.0361 137.912 86.7669 137.979 86.4976 138.043C86.2967 138.093 86.0938 138.14 85.8908 138.186C85.8658 138.194 85.8402 138.2 85.8142 138.204C85.3979 138.302 84.9817 138.395 84.5612 138.48C84.3252 138.53 84.0891 138.579 83.853 138.627C83.7101 138.658 83.5651 138.685 83.4222 138.712C83.242 138.747 83.0639 138.78 82.8837 138.815C82.7843 138.836 82.6849 138.853 82.5834 138.869C82.3556 138.911 82.1278 138.952 81.9021 138.991C81.5169 139.058 81.1275 139.122 80.7402 139.18C80.4586 139.223 80.179 139.265 79.8973 139.304C79.566 139.352 79.2346 139.395 78.9012 139.437C78.8101 139.451 78.7189 139.462 78.6278 139.472C78.5098 139.486 78.3917 139.501 78.2737 139.515C78.0355 139.544 77.7973 139.571 77.5571 139.596C77.4328 139.611 77.3107 139.623 77.1864 139.636C76.9503 139.66 76.7142 139.683 76.4781 139.704C76.1737 139.733 75.8692 139.758 75.5627 139.783C75.1899 139.812 74.8192 139.838 74.4444 139.861C74.2042 139.876 73.9639 139.89 73.7216 139.903C73.1044 139.936 72.4873 139.959 71.866 139.975C71.5574 139.983 71.2468 139.99 70.9361 139.994H70.9299C70.6213 139.998 70.3107 140 70 140C66.8519 140.001 63.7072 139.791 60.5873 139.37C58.2988 139.064 56.0469 138.648 53.8317 138.124C53.7426 138.103 53.6536 138.082 53.5666 138.059C53.3429 138.008 53.1213 137.952 52.8997 137.896C52.703 137.846 52.5083 137.794 52.3115 137.743C47.241 136.423 42.336 134.534 37.6902 132.112C37.6675 132.099 37.6426 132.087 37.6198 132.074C37.4852 132.004 37.3527 131.936 37.2201 131.863C48.5879 129.214 66.5518 125.037 82.1402 121.458C82.5772 121.359 83.0114 121.259 83.4429 121.16C89.2003 119.839 94.5932 118.609 99.1556 117.579C99.6278 117.474 100.09 117.37 100.543 117.269C105.445 116.167 109.252 115.33 111.317 114.912C111.873 114.785 112.436 114.686 113.002 114.616L117.312 121.295L117.32 121.307Z" fill="#2F2E41"/>
<path d="M33.4362 52.7619C39.0308 52.7619 43.5662 48.2266 43.5662 42.632C43.5662 37.0373 39.0308 32.502 33.4362 32.502C27.8416 32.502 23.3062 37.0373 23.3062 42.632C23.3062 48.2266 27.8416 52.7619 33.4362 52.7619Z" fill="#2F2E41"/>
<path d="M95.6632 49.8677C101.258 49.8677 105.793 45.3323 105.793 39.7377C105.793 34.143 101.258 29.6077 95.6632 29.6077C90.0686 29.6077 85.5332 34.143 85.5332 39.7377C85.5332 45.3323 90.0686 49.8677 95.6632 49.8677Z" fill="#2F2E41"/>
<path d="M84.8097 35.3963C84.81 32.8978 85.7337 30.4876 87.4032 28.6288C89.0727 26.77 91.3702 25.5938 93.8543 25.3262C92.4396 25.1716 91.0083 25.3169 89.6535 25.7525C88.2987 26.1881 87.0509 26.9043 85.9914 27.8544C84.9319 28.8045 84.0845 29.9671 83.5043 31.2666C82.9242 32.5661 82.6243 33.9732 82.6243 35.3963C82.6243 36.8193 82.9242 38.2265 83.5043 39.5259C84.0845 40.8254 84.9319 41.9881 85.9914 42.9381C87.0509 43.8882 88.2987 44.6044 89.6535 45.04C91.0083 45.4756 92.4396 45.6209 93.8543 45.4664C91.3702 45.1987 89.0727 44.0225 87.4032 42.1637C85.7337 40.3049 84.81 37.8947 84.8097 35.3963V35.3963Z" fill="#2F2E41"/>
<path d="M22.1175 50.8259C20.3692 49.0411 19.3422 46.6731 19.2338 44.177C19.1254 41.6809 19.9433 39.2327 21.5303 37.3031C20.4117 38.1828 19.4909 39.2883 18.8281 40.5476C18.1653 41.8069 17.7753 43.1917 17.6834 44.6118C17.5915 46.032 17.7999 47.4555 18.295 48.7897C18.79 50.1239 19.5606 51.3388 20.5566 52.3553C21.5525 53.3718 22.7515 54.167 24.0753 54.6892C25.3992 55.2113 26.8182 55.4487 28.2399 55.3858C29.6616 55.323 31.0541 54.9612 32.3266 54.3242C33.5992 53.6872 34.7232 52.7893 35.6256 51.6888C33.6639 53.2361 31.1996 54.0039 28.7063 53.8447C26.2129 53.6854 23.8663 52.6103 22.1175 50.8259V50.8259Z" fill="#2F2E41"/>
<path d="M64.5497 51.3148C52.5612 51.3148 42.8426 56.984 42.8426 63.9773C42.8426 67.1064 44.7961 69.9661 48.0208 72.1754L52.1996 69.1476L51.0632 73.8911C51.5347 74.1096 52.0162 74.3211 52.5184 74.5166L58.7612 67.2333V76.1808C60.6754 76.4875 62.6111 76.641 64.5497 76.6397C76.5382 76.6397 86.2568 70.9705 86.2568 63.9773C86.2568 56.984 76.5382 51.3148 64.5497 51.3148Z" fill="#2F2E41"/>
<path d="M85.5332 39.7377C85.5332 39.7377 83.96 46.9734 93.7912 49.8676L85.5332 39.7377Z" fill="#2F2E41"/>
<path d="M42.8426 41.0546C42.8426 41.0546 46.4605 49.1441 35.6069 52.7619L42.8426 41.0546Z" fill="#2F2E41"/>
</g>
<defs>
<clipPath id="clip0">
<rect width="140" height="140" fill="white"/>
</clipPath>
</defs>
</svg>
