<svg width="512" height="512" viewBox="0 0 512 512" fill="none" xmlns="http://www.w3.org/2000/svg">
<g clip-path="url(#clip0)">
<path d="M495.662 439.998H46.798C42.49 439.998 39 443.49 39 447.796V458.198C39 462.506 42.492 465.996 46.798 465.996H495.662C499.97 465.996 503.46 462.504 503.46 458.198V447.796C503.46 443.49 499.97 439.998 495.662 439.998Z" fill="#5290DB"/>
<path d="M468.83 301.862H464.23V297.262C464.23 293.862 461.43 290.862 457.83 290.862C454.23 290.862 451.43 293.662 451.43 297.262V301.862H446.83C443.43 301.862 440.43 304.662 440.43 308.262C440.43 311.862 443.23 314.662 446.83 314.662H451.43V319.262C451.43 322.662 454.23 325.662 457.83 325.662C461.43 325.662 464.23 322.862 464.23 319.262V314.662H468.83C472.23 314.662 475.23 311.862 475.23 308.262C475.23 304.662 472.43 301.862 468.83 301.862Z" fill="#FC657E"/>
<path d="M136.83 105.362C127.83 103.762 120.83 96.762 119.03 87.962C119.03 87.562 118.23 87.562 118.23 87.962C116.43 96.762 109.43 103.762 100.43 105.362C100.03 105.362 100.03 105.962 100.43 106.162C109.43 107.762 116.43 114.762 118.23 123.562C118.23 123.962 119.03 123.962 119.03 123.562C120.83 114.762 127.83 107.762 136.83 106.162C137.23 105.962 137.23 105.362 136.83 105.362Z" fill="#F5C84C"/>
<path d="M444.83 363.662C441.074 363.662 438.03 366.706 438.03 370.462C438.03 374.218 441.074 377.262 444.83 377.262C448.586 377.262 451.63 374.218 451.63 370.462C451.63 366.706 448.586 363.662 444.83 363.662Z" fill="#F5C84C"/>
<path d="M148.83 45.662C145.074 45.662 142.03 48.706 142.03 52.462C142.03 56.218 145.074 59.262 148.83 59.262C152.586 59.262 155.63 56.218 155.63 52.462C155.63 48.706 152.586 45.662 148.83 45.662Z" fill="#87D147"/>
<path d="M155.028 421.536C155.058 418.316 157.768 415.752 160.99 415.752H173.628C168.962 415.752 165.18 411.97 165.18 407.304V310.646L148.07 314.952C135.968 317.998 127.254 328.558 126.56 341.018L122.574 409.736C128.272 412.52 132.23 418.362 132.23 425.1V439.996H173.31C163.154 439.998 154.932 431.716 155.028 421.536V421.536Z" fill="#70D6F9"/>
<path d="M369.15 439.998H421.64L415.9 341.02C415.206 328.562 406.492 318 394.39 314.954L377.28 310.648V407.306C377.28 411.972 373.498 415.754 368.832 415.754H381.47C384.69 415.754 387.4 418.318 387.432 421.538C387.528 431.716 379.306 439.998 369.15 439.998Z" fill="#70D6F9"/>
<path d="M343.476 127.348C343.436 125.298 341.794 123.61 339.746 123.55C309.728 122.67 293.912 110.774 287.834 104.816C286.174 103.19 283.496 103.362 282.05 105.18C255.658 138.368 216.726 133.686 203.636 130.946C201.258 130.448 198.974 132.242 198.972 134.672V134.722V192.846C198.972 220.534 214.764 244.7 237.778 256.82H304.678C327.692 244.7 343.484 220.534 343.484 192.846V128.478C343.486 128.1 343.482 127.724 343.476 127.348Z" fill="#F9D0B4"/>
<path d="M341.5 54C341.5 52.218 338.194 53.88 338.352 52.138C334.968 51.232 331.432 50.704 327.772 50.704C320.072 50.704 312.874 52.88 306.688 56.59C299.462 44.53 286.298 36.388 271.292 36.388H250.098C209.078 36.388 175.514 69.95 175.514 110.972V144.39C180.676 140.26 187.212 137.776 194.336 137.776C195.914 137.776 197.46 137.91 198.972 138.144V134.672C198.974 132.242 201.256 130.448 203.636 130.946C216.726 133.686 255.658 138.368 282.05 105.18C283.496 103.362 286.174 103.19 287.832 104.816C293.91 110.774 309.726 122.67 339.744 123.55C341.792 123.61 343.434 125.3 343.474 127.348C343.482 127.724 343.486 128.1 343.486 128.478V138.142C344.998 137.908 346.544 137.774 348.122 137.774C356.254 137.774 363.62 141.008 369.046 146.24L368 105.18C358 90.364 345.5 78 343.474 50.704L341.5 54Z" fill="#754E34"/>
<path d="M348.124 137.776C346.546 137.776 345 137.91 343.488 138.144V192.846C343.488 194.476 343.414 196.088 343.306 197.692C344.878 197.946 346.48 198.112 348.124 198.112C364.786 198.112 378.292 184.606 378.292 167.944C378.292 151.282 364.784 137.776 348.124 137.776V137.776Z" fill="#F9D0B4"/>
<path d="M198.974 192.844V138.142C197.462 137.908 195.916 137.774 194.338 137.774C177.676 137.774 164.17 151.28 164.17 167.942C164.17 184.604 177.676 198.11 194.338 198.11C195.982 198.11 197.584 197.942 199.156 197.69V197.688C199.048 196.086 198.974 194.474 198.974 192.844Z" fill="#F9D0B4"/>
<path d="M369.15 439.998H421.64L419.42 401.716H377.28V407.304C377.28 411.97 373.498 415.752 368.832 415.752H381.47C384.69 415.752 387.4 418.316 387.432 421.536C387.528 431.716 379.306 439.998 369.15 439.998Z" fill="#F9D0B4"/>
<path d="M155.028 421.536C155.058 418.316 157.768 415.752 160.99 415.752H173.628C168.962 415.752 165.18 411.97 165.18 407.304V401.716H123.04L122.574 409.738C128.272 412.522 132.23 418.364 132.23 425.102V439.998H173.31C163.154 439.998 154.932 431.716 155.028 421.536V421.536Z" fill="#F9D0B4"/>
<path d="M296.05 206.154C293.932 204.38 290.78 204.658 289.006 206.774C285.542 210.908 279.654 213.376 273.26 213.376C266.866 213.376 260.98 210.908 257.514 206.774C255.74 204.658 252.588 204.38 250.47 206.154C248.354 207.928 248.076 211.082 249.85 213.198C255.192 219.572 263.944 223.376 273.26 223.376C282.576 223.376 291.326 219.572 296.67 213.198C298.444 211.082 298.166 207.928 296.05 206.154V206.154Z" fill="black"/>
<path d="M303.242 180.986C308.334 180.986 312.462 176.858 312.462 171.766C312.462 166.674 308.334 162.546 303.242 162.546C298.15 162.546 294.022 166.674 294.022 171.766C294.022 176.858 298.15 180.986 303.242 180.986Z" fill="black"/>
<path d="M241.318 180.986C246.41 180.986 250.538 176.858 250.538 171.766C250.538 166.674 246.41 162.546 241.318 162.546C236.226 162.546 232.098 166.674 232.098 171.766C232.098 176.858 236.226 180.986 241.318 180.986Z" fill="black"/>
<path d="M420.894 340.742C420.074 326.018 409.914 313.706 395.612 310.106L380.412 306.28C377.734 305.606 375.018 307.232 374.342 309.908C373.668 312.586 375.292 315.304 377.97 315.978L393.17 319.804C403.204 322.33 410.332 330.97 410.91 341.31L416.544 438.464C416.698 441.124 418.902 443.174 421.53 443.174C421.628 443.174 421.726 443.172 421.824 443.166C424.58 443.006 426.686 440.642 426.526 437.886L420.894 340.742Z" fill="black"/>
<path d="M168.176 309.892C167.502 307.214 164.788 305.588 162.106 306.264L146.848 310.104C132.546 313.704 122.386 326.018 121.568 340.73L117.684 407.708C117.524 410.464 119.63 412.83 122.386 412.988C122.484 412.994 122.582 412.996 122.68 412.996C125.308 412.996 127.514 410.944 127.666 408.286L131.552 341.296C132.128 330.966 139.256 322.328 149.29 319.8L164.548 315.96C167.226 315.288 168.85 312.57 168.176 309.892V309.892Z" fill="black"/>
<path d="M348.474 127.248C348.38 122.51 344.61 118.69 339.89 118.55C311.138 117.708 296.354 106.166 291.332 101.242C289.532 99.48 287.078 98.558 284.556 98.712C282.046 98.868 279.706 100.09 278.136 102.064C253.916 132.522 218.686 128.984 204.66 126.048C202.03 125.502 199.32 126.158 197.23 127.854C195.162 129.532 193.974 132.016 193.972 134.72V192.846C193.972 221.11 209.488 247.124 234.468 260.738C236.89 262.058 239.928 261.164 241.252 258.74C242.574 256.316 241.678 253.28 239.254 251.956C217.492 240.096 203.974 217.446 203.974 192.844V136.112C217.718 138.738 257.734 142.792 285.212 109.226C292.83 116.344 309.252 127.392 338.488 128.51V192.844C338.488 217.444 324.97 240.094 303.208 251.956C300.784 253.278 299.888 256.314 301.21 258.74C302.118 260.406 303.834 261.348 305.606 261.348C306.414 261.348 307.234 261.152 307.994 260.738C332.972 247.124 348.49 221.11 348.49 192.846V128.478C348.486 128.066 348.482 127.654 348.474 127.248Z" fill="black"/>
<path d="M338.206 46.898C328.32 44.598 317.63 45.698 308.32 50.064C299.616 38.44 285.824 31.39 271.292 31.39H250.096C206.214 31.39 170.512 67.092 170.512 110.974V142.846C170.512 145.608 172.75 147.846 175.512 147.846C178.274 147.846 180.512 145.608 180.512 142.846V110.97C180.512 72.602 211.726 41.386 250.096 41.386H271.292C283.912 41.386 295.832 48.196 302.398 59.158C303.08 60.296 304.186 61.116 305.472 61.438C306.756 61.758 308.122 61.558 309.258 60.876C317.308 56.048 332.602 54.93 341.5 57C344.198 57.628 344 78.5 369 109C381.5 118 359 48 338.206 46.898Z" fill="black"/>
<path d="M369.048 105.164C366.286 105.164 364.048 107.402 364.048 110.164V144.822C364.048 147.584 366.286 149.822 369.048 149.822C371.81 149.822 374.048 147.584 374.048 144.822V110.164C374.048 107.402 371.81 105.164 369.048 105.164Z" fill="black"/>
<path d="M348.124 132.776C347.146 132.776 346.18 132.818 345.224 132.9C342.472 133.134 340.432 135.554 340.664 138.306C340.898 141.058 343.324 143.092 346.07 142.866C346.746 142.808 347.432 142.778 348.124 142.778C362.002 142.778 373.292 154.068 373.292 167.946C373.292 181.822 362.002 193.112 348.124 193.112C347.388 193.112 346.642 193.072 345.84 192.988C343.096 192.706 340.636 194.698 340.35 197.446C340.064 200.192 342.06 202.65 344.808 202.936C345.938 203.054 347.056 203.112 348.124 203.112C367.516 203.112 383.292 187.336 383.292 167.946C383.292 148.556 367.516 132.776 348.124 132.776V132.776Z" fill="black"/>
<path d="M196.26 193.022C195.626 193.078 194.986 193.11 194.338 193.11C180.46 193.11 169.17 181.82 169.17 167.944C169.17 154.066 180.46 142.776 194.338 142.776C195 142.776 195.656 142.804 196.302 142.858C199.058 143.096 201.468 141.032 201.69 138.28C201.914 135.528 199.864 133.114 197.112 132.892C196.196 132.818 195.272 132.778 194.336 132.778C174.944 132.778 159.168 148.554 159.168 167.946C159.168 187.338 174.944 203.112 194.336 203.112C195.288 203.112 196.226 203.066 197.156 202.982C199.906 202.734 201.936 200.304 201.688 197.554C201.44 194.802 199.006 192.768 196.26 193.022V193.022Z" fill="black"/>
<path d="M417.088 396.716H377.972C375.21 396.716 372.972 398.954 372.972 401.716C372.972 404.478 375.21 406.716 377.972 406.716H417.088C419.85 406.716 422.088 404.478 422.088 401.716C422.088 398.954 419.85 396.716 417.088 396.716Z" fill="black"/>
<path d="M163.252 396.716H124.632C121.87 396.716 119.632 398.954 119.632 401.716C119.632 404.478 121.87 406.716 124.632 406.716H163.254C166.016 406.716 168.254 404.478 168.254 401.716C168.254 398.954 166.014 396.716 163.252 396.716Z" fill="black"/>
<path d="M368.832 256.818H173.628C168.962 256.818 165.18 260.6 165.18 265.266V407.304C165.18 411.97 168.962 415.752 173.628 415.752H368.834C373.5 415.752 377.282 411.97 377.282 407.304V265.266C377.282 260.602 373.498 256.818 368.832 256.818V256.818Z" fill="#EDF4FC"/>
<path d="M381.47 415.752H160.99C157.698 415.752 155.028 418.422 155.028 421.714C155.028 431.812 163.214 439.996 173.31 439.996H369.15C379.248 439.996 387.432 431.81 387.432 421.714C387.432 418.422 384.764 415.752 381.47 415.752Z" fill="#DAE6F1"/>
<path d="M285.442 331.286H257.018C254.256 331.286 252.018 333.524 252.018 336.286C252.018 339.048 254.256 341.286 257.018 341.286H285.442C288.204 341.286 290.442 339.048 290.442 336.286C290.442 333.524 288.204 331.286 285.442 331.286Z" fill="black"/>
<path d="M368.832 251.818H173.628C166.212 251.818 160.18 257.852 160.18 265.266V407.304C160.18 414.72 166.214 420.752 173.628 420.752H368.834C376.25 420.752 382.282 414.718 382.282 407.304V265.266C382.28 257.852 376.248 251.818 368.832 251.818V251.818ZM372.28 407.304C372.28 409.206 370.734 410.752 368.832 410.752H173.628C171.726 410.752 170.18 409.206 170.18 407.304V265.266C170.18 263.364 171.726 261.818 173.628 261.818H368.834C370.736 261.818 372.282 263.364 372.282 265.266V407.304H372.28Z" fill="black"/>
<path d="M381.47 410.752H160.99C154.946 410.752 150.028 415.67 150.028 421.714C150.028 434.552 160.472 444.998 173.31 444.998H369.15C381.988 444.998 392.432 434.554 392.432 421.714C392.432 415.67 387.514 410.752 381.47 410.752V410.752ZM369.15 434.998H173.31C165.986 434.998 160.028 429.04 160.028 421.714C160.028 421.184 160.46 420.752 160.99 420.752H381.47C382 420.752 382.432 421.184 382.432 421.714C382.432 429.04 376.474 434.998 369.15 434.998Z" fill="black"/>
<path d="M495.662 434.998H46.798C39.74 434.998 34 440.74 34 447.796V458.198C34 465.256 39.742 470.996 46.798 470.996H495.662C502.72 470.996 508.46 465.254 508.46 458.198V447.796C508.46 440.74 502.72 434.998 495.662 434.998ZM498.46 458.2C498.46 459.742 497.204 460.998 495.662 460.998H46.798C45.256 460.998 44 459.742 44 458.2V447.798C44 446.256 45.256 445 46.798 445H495.662C497.204 445 498.46 446.256 498.46 447.798V458.2Z" fill="black"/>
<path d="M115.126 402.998H85.334C73.146 402.998 63.23 412.914 63.23 425.102V439.998C63.23 442.76 65.468 444.998 68.23 444.998H132.23C134.992 444.998 137.23 442.76 137.23 439.998V425.102C137.23 412.914 127.314 402.998 115.126 402.998ZM127.23 434.998H73.23V425.102C73.23 418.428 78.66 412.998 85.334 412.998H115.126C121.8 412.998 127.23 418.428 127.23 425.102V434.998Z" fill="black"/>
</g>
<defs>
<clipPath id="clip0">
<rect width="512" height="512" fill="white"/>
</clipPath>
</defs>
</svg>
